<svg width="343" height="358" viewBox="0 0 343 358" fill="none" xmlns="http://www.w3.org/2000/svg">
<path opacity="0.1" d="M126.082 325.163L107.18 268.741L35.1522 249.441C30.1164 248.092 26.2865 245.143 23.6625 240.596C21.036 236.049 20.3974 231.258 21.7468 226.222L64.5171 66.6015C65.8664 61.5656 68.8153 57.7347 73.3636 55.1087C77.9094 52.4843 82.7001 51.8467 87.736 53.196L295.274 108.806C300.31 110.155 304.141 113.103 306.767 117.649C309.391 122.197 310.029 126.989 308.679 132.025L265.909 291.646C264.56 296.681 261.612 300.512 257.066 303.136C252.518 305.762 247.726 306.4 242.69 305.051L170.662 285.751L126.082 325.163ZM134.914 292.201L165.802 264.822L247.597 286.739L290.367 127.118L82.8293 71.5082L40.0589 231.129L121.853 253.046L134.914 292.201Z" fill="url(#paint0_linear_1176_1678)"/>
<path opacity="0.2" d="M10.7653 181.119V179.689C10.7653 178.086 10.9386 176.656 11.2853 175.399C11.6753 174.143 12.2386 173.059 12.9753 172.149C13.7553 171.196 14.427 170.481 14.9903 170.004C15.597 169.484 16.4203 168.856 17.4603 168.119C18.5003 167.383 19.2803 166.798 19.8003 166.364C20.3203 165.888 20.8186 165.238 21.2953 164.414C21.772 163.548 22.0103 162.594 22.0103 161.554C22.0103 159.821 21.4253 158.434 20.2553 157.394C19.0853 156.311 17.677 155.769 16.0303 155.769C14.3836 155.769 12.932 156.311 11.6753 157.394C10.4186 158.434 9.76865 159.886 9.72531 161.749H0.820312C0.863646 158.673 1.64365 156.008 3.16031 153.754C4.67698 151.458 6.56198 149.789 8.81531 148.749C11.0686 147.709 13.4953 147.189 16.0953 147.189C20.2553 147.189 23.8086 148.489 26.7553 151.089C29.7453 153.689 31.2403 157.178 31.2403 161.554C31.2403 163.028 31.067 164.349 30.7203 165.519C30.417 166.689 29.897 167.729 29.1603 168.639C28.4236 169.549 27.7953 170.243 27.2753 170.719C26.7553 171.196 25.997 171.846 25.0003 172.669C23.917 173.493 23.1153 174.143 22.5953 174.619C22.0753 175.096 21.5553 175.789 21.0353 176.699C20.5586 177.609 20.3203 178.606 20.3203 179.689V181.119H10.7653ZM10.5053 195.289V185.149H20.5803V195.289H10.5053Z" fill="#3A4049"/>
<path d="M78.1545 153.057L79.1394 149.381C80.2437 145.26 81.6744 141.703 83.4316 138.712C85.3002 135.751 87.4952 133.354 90.0167 131.523C92.6794 129.61 94.8994 128.235 96.6766 127.398C98.5951 126.479 101.145 125.432 104.328 124.255C107.51 123.078 109.919 122.112 111.555 121.356C113.221 120.49 114.95 119.162 116.743 117.374C118.566 115.475 119.836 113.189 120.552 110.516C121.746 106.06 121.196 102.093 118.903 98.6131C116.64 95.0221 113.391 92.6592 109.156 91.5244C104.921 90.3896 100.814 90.7815 96.8356 92.7001C92.8872 94.5073 90.2155 97.7908 88.8207 102.55L65.9171 96.4135C68.1476 88.535 71.9893 82.2223 77.4421 77.4754C82.9248 72.6172 88.9221 69.6279 95.4339 68.5075C101.946 67.3872 108.545 67.7229 115.232 69.5148C125.932 72.3817 134.176 78.1721 139.964 86.886C145.863 95.6297 147.306 105.627 144.291 116.877C143.277 120.664 141.921 123.942 140.223 126.71C138.637 129.508 136.583 131.823 134.062 133.655C131.54 135.486 129.447 136.835 127.781 137.702C126.115 138.569 123.717 139.717 120.587 141.147C117.233 142.516 114.724 143.635 113.058 144.502C111.392 145.369 109.577 146.792 107.613 148.773C105.76 150.784 104.461 153.181 103.715 155.966L102.73 159.642L78.1545 153.057ZM67.7262 189.301L74.7101 163.237L100.623 170.18L93.639 196.244L67.7262 189.301Z" fill="#3A4049"/>
<path d="M193.638 120.415L197.562 116.491C201.962 112.092 206.362 108.643 210.762 106.147C215.281 103.769 219.801 102.343 224.321 101.869C229.079 101.394 232.885 101.277 235.74 101.515C238.832 101.754 242.817 102.291 247.695 103.125C252.572 103.959 256.319 104.495 258.936 104.734C261.671 104.854 264.824 104.438 268.392 103.488C272.079 102.418 275.349 100.457 278.203 97.6027C282.96 92.8462 285.159 87.4347 284.8 81.3683C284.56 75.1829 282.18 69.8295 277.658 65.3081C273.137 60.7867 267.664 58.2871 261.241 57.8094C254.937 57.2128 249.168 59.4116 243.936 64.4059L219.485 39.9546C228.047 31.6308 237.501 26.4594 247.849 24.4404C258.316 22.3025 268.07 22.9001 277.111 26.2334C286.152 29.5667 294.242 34.8028 301.381 41.9419C312.804 53.3644 318.993 66.6884 319.949 81.9141C321.024 97.2588 315.557 110.936 303.547 122.946C299.504 126.989 295.401 130.14 291.238 132.399C287.195 134.777 282.913 136.203 278.393 136.677C273.873 137.152 270.246 137.329 267.51 137.209C264.774 137.09 260.908 136.791 255.912 136.314C250.678 135.598 246.693 135.181 243.957 135.061C241.221 134.941 237.891 135.416 233.966 136.486C230.16 137.674 226.771 139.754 223.798 142.727L219.874 146.651L193.638 120.415ZM154.039 158.586L181.865 130.76L209.529 158.424L181.703 186.25L154.039 158.586Z" fill="#3A4049"/>
<defs>
<linearGradient id="paint0_linear_1176_1678" x1="191.505" y1="81.0008" x2="245.001" y2="298" gradientUnits="userSpaceOnUse">
<stop stop-color="#E8EAED"/>
<stop offset="1" stop-color="#2C2E35"/>
</linearGradient>
</defs>
</svg>
